<svg xmlns="http://www.w3.org/2000/svg" viewBox="0 0 512 512" width="512" height="512">
  <defs>
    <linearGradient id="bg" x1="0%" y1="0%" x2="100%" y2="100%">
      <stop offset="0%" style="stop-color:#1a1a2e"/>
      <stop offset="100%" style="stop-color:#16213e"/>
    </linearGradient>
  </defs>
  <!-- Background -->
  <rect width="512" height="512" rx="80" fill="url(#bg)"/>
  <!-- Barbell -->
  <rect x="100" y="230" width="80" height="52" rx="8" fill="#e94560"/>
  <rect x="332" y="230" width="80" height="52" rx="8" fill="#e94560"/>
  <rect x="170" y="245" width="172" height="22" rx="6" fill="#e94560"/>
  <!-- Upward arrow / chart line (representing progress) -->
  <polyline points="140,380 220,330 300,350 380,280" stroke="#0f3460" stroke-width="16" stroke-linecap="round" stroke-linejoin="round" fill="none"/>
  <polyline points="140,380 220,330 300,350 380,280" stroke="#53d8fb" stroke-width="10" stroke-linecap="round" stroke-linejoin="round" fill="none"/>
  <circle cx="380" cy="280" r="10" fill="#53d8fb"/>
  <!-- Sun/weather indicator -->
  <circle cx="390" cy="150" r="35" fill="#f5a623" opacity="0.9"/>
  <g stroke="#f5a623" stroke-width="6" stroke-linecap="round" opacity="0.7">
    <line x1="390" y1="100" x2="390" y2="88"/>
    <line x1="390" y1="200" x2="390" y2="212"/>
    <line x1="340" y1="150" x2="328" y2="150"/>
    <line x1="440" y1="150" x2="452" y2="150"/>
    <line x1="355" y1="115" x2="346" y2="106"/>
    <line x1="425" y1="185" x2="434" y2="194"/>
    <line x1="355" y1="185" x2="346" y2="194"/>
    <line x1="425" y1="115" x2="434" y2="106"/>
  </g>
  <!-- Text -->
  <text x="256" y="460" text-anchor="middle" font-family="Arial, Helvetica, sans-serif" font-weight="bold" font-size="56" fill="white" letter-spacing="6">TRAIN SMART</text>
</svg>
